<?xml version="1.0" encoding="utf-8"?>
<svg xmlns="http://www.w3.org/2000/svg" height="512pt" version="1.1" viewBox="0 0 512 512" width="512pt">
<path d="M 0.00 0.00 L 512.00 0.00 L 512.00 512.00 L 0.00 512.00 L 0.00 0.00 Z" fill="#f9f5f2" opacity="1.00" stroke="#f9f5f2" stroke-width="0.25"/>
<path d="M 237.00 66.29 C 239.53 67.53 242.26 68.43 244.51 70.18 C 244.44 71.45 244.49 72.75 245.38 73.75 C 245.34 75.28 245.13 76.81 244.90 78.32 C 244.09 78.56 243.28 78.78 242.48 79.01 C 240.55 74.82 239.12 70.40 237.00 66.29 Z" fill="#ebdc7c" opacity="1.00" stroke="#ebdc7c" stroke-width="0.25"/>
<path d="M 245.38 73.75 C 244.49 72.75 244.44 71.45 244.51 70.18 C 250.37 73.71 256.61 76.68 261.92 81.07 C 264.79 83.53 268.30 85.26 270.80 88.12 C 269.06 88.83 267.46 89.81 266.01 90.99 C 264.03 93.04 260.90 92.29 258.63 93.84 C 257.92 92.64 257.15 91.48 256.41 90.30 C 252.96 84.66 250.11 78.49 245.38 73.75 Z" fill="#eab62d" opacity="1.00" stroke="#eab62d" stroke-width="0.25"/>
<path d="M 245.38 73.75 C 250.11 78.49 252.96 84.66 256.41 90.30 C 254.96 91.20 253.28 91.53 251.61 91.77 C 248.76 98.97 252.34 106.60 250.61 113.96 C 249.96 111.67 250.07 108.97 248.19 107.24 C 246.71 97.85 245.90 88.05 242.48 79.01 C 243.28 78.78 244.09 78.56 244.90 78.32 C 245.13 76.81 245.34 75.28 245.38 73.75 Z" fill="#efcf48" opacity="1.00" stroke="#efcf48" stroke-width="0.25"/>
<path d="M 270.80 88.12 C 279.95 95.02 287.25 104.54 293.34 114.27 C 292.50 114.69 291.67 115.11 290.84 115.53 C 289.64 115.13 288.44 114.73 287.25 114.32 C 287.71 115.56 288.17 116.80 288.63 118.04 C 287.72 118.57 286.90 119.39 285.83 119.56 C 284.39 118.99 283.18 117.95 281.73 117.42 C 280.07 117.27 278.81 118.66 277.43 119.36 C 275.45 118.33 273.56 116.99 271.33 116.57 C 269.58 116.12 268.25 117.68 266.81 118.35 C 264.66 110.02 263.03 101.37 258.63 93.84 C 260.90 92.29 264.03 93.04 266.01 90.99 C 267.46 89.81 269.06 88.83 270.80 88.12 Z" fill="#f0a028" opacity="1.00" stroke="#f0a028" stroke-width="0.25"/>
<path d="M 256.41 90.30 C 257.15 91.48 257.92 92.64 258.63 93.84 C 263.03 101.37 264.66 110.02 266.81 118.35 C 268.95 134.67 265.97 151.24 260.71 166.71 C 257.21 176.10 253.36 185.43 247.88 193.86 C 231.26 220.63 208.12 242.40 185.46 263.97 C 184.93 263.90 183.87 263.75 183.34 263.68 C 182.42 264.55 181.50 265.43 180.59 266.32 C 180.11 264.62 178.54 265.11 177.27 264.74 C 174.48 263.02 174.42 259.42 173.77 256.57 C 173.28 256.80 172.80 257.04 172.32 257.29 C 169.11 254.04 164.25 256.10 160.35 256.42 C 157.86 257.17 155.61 255.63 153.67 254.28 C 154.09 252.64 154.52 251.01 154.95 249.38 C 154.08 249.74 153.22 250.11 152.35 250.47 C 152.20 250.09 151.91 249.35 151.76 248.97 C 159.00 240.04 168.21 232.87 178.15 227.17 C 207.32 210.05 230.59 182.75 241.79 150.75 C 247.03 136.90 248.81 121.98 248.19 107.24 C 250.07 108.97 249.96 111.67 250.61 113.96 C 252.34 106.60 248.76 98.97 251.61 91.77 C 253.28 91.53 254.96 91.20 256.41 90.30 Z" fill="#f4bf2f" opacity="1.00" stroke="#f4bf2f" stroke-width="0.25"/>
<path d="M 287.25 114.32 C 288.44 114.73 289.64 115.13 290.84 115.53 C 291.67 115.11 292.50 114.69 293.34 114.27 C 305.14 133.78 309.52 157.48 306.69 180.03 C 306.52 183.02 306.20 186.07 306.82 189.04 C 307.92 191.93 310.59 194.84 313.96 194.35 C 318.56 193.47 321.58 189.48 324.70 186.34 C 324.78 189.20 323.04 191.41 321.32 193.48 C 322.40 194.02 323.83 194.16 324.53 195.28 C 326.15 197.87 329.31 198.57 331.65 200.31 C 331.83 199.93 332.20 199.17 332.38 198.79 C 333.87 198.98 335.39 199.31 336.90 199.01 C 338.22 198.46 339.06 197.19 340.25 196.43 C 341.62 196.56 342.80 197.37 344.05 197.91 C 342.69 200.02 341.21 202.05 339.57 203.96 C 329.15 216.09 317.21 226.86 304.34 236.33 C 291.91 245.89 278.89 254.69 266.98 264.92 C 256.81 273.39 247.23 282.55 238.23 292.26 C 223.59 307.81 210.50 325.49 203.81 346.00 C 202.28 344.88 201.04 342.16 198.78 343.25 C 198.56 341.97 198.35 340.69 198.14 339.42 C 194.80 339.72 191.63 341.90 191.04 345.34 C 190.47 345.20 189.91 345.07 189.35 344.95 C 187.92 346.92 184.37 347.64 183.08 345.18 C 184.61 344.12 186.28 343.28 188.00 342.56 C 185.84 341.18 183.47 341.89 181.17 342.37 C 179.78 341.83 178.67 340.53 178.26 339.11 C 179.04 336.64 180.15 334.28 180.79 331.77 C 177.84 332.20 175.87 334.60 173.49 336.14 C 173.95 333.88 175.06 331.58 174.53 329.24 C 174.24 327.50 172.51 326.66 171.39 325.50 C 168.75 323.36 167.60 319.86 164.64 318.04 C 164.53 317.41 164.42 316.78 164.32 316.16 C 162.92 316.63 161.54 317.13 160.15 317.63 C 156.32 315.25 159.61 310.69 159.93 307.34 C 158.22 307.90 156.41 308.40 155.07 309.68 C 155.58 310.74 156.09 311.82 156.59 312.89 C 155.67 313.25 154.74 313.61 153.82 313.97 C 153.46 315.87 153.15 317.77 152.88 319.68 C 152.11 319.08 151.34 318.48 150.57 317.88 C 151.08 314.23 151.74 310.60 152.88 307.09 C 158.60 289.45 172.82 276.76 185.46 263.97 C 208.12 242.40 231.26 220.63 247.88 193.86 C 253.36 185.43 257.21 176.10 260.71 166.71 C 265.97 151.24 268.95 134.67 266.81 118.35 C 268.25 117.68 269.58 116.12 271.33 116.57 C 273.56 116.99 275.45 118.33 277.43 119.36 C 278.81 118.66 280.07 117.27 281.73 117.42 C 283.18 117.95 284.39 118.99 285.83 119.56 C 286.90 119.39 287.72 118.57 288.63 118.04 C 288.17 116.80 287.71 115.56 287.25 114.32 Z" fill="#ee8921" opacity="1.00" stroke="#ee8921" stroke-width="0.25"/>
<path d="M 335.70 165.76 C 339.01 156.19 338.61 145.93 338.32 135.95 C 339.77 138.06 342.00 139.39 343.73 141.23 C 348.76 146.65 352.97 152.86 355.72 159.75 C 353.67 163.32 356.05 167.18 355.33 170.95 C 353.87 180.71 349.37 189.70 344.05 197.91 C 342.80 197.37 341.62 196.56 340.25 196.43 C 339.06 197.19 338.22 198.46 336.90 199.01 C 335.39 199.31 333.87 198.98 332.38 198.79 C 332.20 199.17 331.83 199.93 331.65 200.31 C 329.31 198.57 326.15 197.87 324.53 195.28 C 323.83 194.16 322.40 194.02 321.32 193.48 C 323.04 191.41 324.78 189.20 324.70 186.34 C 329.25 180.02 333.50 173.31 335.70 165.76 Z" fill="#f09b26" opacity="1.00" stroke="#f09b26" stroke-width="0.25"/>
<path d="M 355.33 170.95 C 356.05 167.18 353.67 163.32 355.72 159.75 C 359.41 169.05 361.99 178.92 362.23 188.97 C 362.44 205.64 356.25 222.01 346.33 235.28 C 346.09 233.57 345.05 231.68 346.07 230.04 C 348.35 225.49 350.83 221.04 353.36 216.62 C 351.17 213.26 350.89 208.89 347.89 206.04 C 347.41 206.88 346.94 207.71 346.48 208.55 C 345.98 207.50 345.48 206.46 344.99 205.42 C 344.01 205.80 343.05 206.17 342.08 206.55 C 341.24 205.69 340.40 204.82 339.57 203.96 C 341.21 202.05 342.69 200.02 344.05 197.91 C 349.37 189.70 353.87 180.71 355.33 170.95 Z" fill="#df5d22" opacity="1.00" stroke="#df5d22" stroke-width="0.25"/>
<path d="M 304.34 236.33 C 317.21 226.86 329.15 216.09 339.57 203.96 C 340.40 204.82 341.24 205.69 342.08 206.55 C 343.05 206.17 344.01 205.80 344.99 205.42 C 345.48 206.46 345.98 207.50 346.48 208.55 C 346.94 207.71 347.41 206.88 347.89 206.04 C 350.89 208.89 351.17 213.26 353.36 216.62 C 350.83 221.04 348.35 225.49 346.07 230.04 C 345.05 231.68 346.09 233.57 346.33 235.28 C 345.63 236.51 344.91 237.73 344.21 238.96 C 345.77 239.36 347.36 239.12 348.92 238.81 C 347.90 242.55 346.71 246.29 344.61 249.60 C 340.76 256.31 334.41 260.94 328.93 266.21 C 336.12 266.01 342.64 262.74 349.26 260.31 C 349.19 262.14 349.06 263.96 348.91 265.79 C 348.31 264.90 347.71 264.01 347.11 263.12 C 346.90 264.19 346.71 265.27 346.51 266.35 C 346.91 266.61 347.72 267.13 348.12 267.39 C 347.64 268.85 347.78 270.40 347.84 271.91 C 348.73 272.75 349.62 273.59 350.52 274.44 C 350.58 275.54 350.64 276.64 350.71 277.75 C 351.97 278.29 353.23 278.84 354.50 279.38 C 352.18 282.27 351.43 286.14 348.62 288.65 C 347.43 289.89 346.33 291.21 345.29 292.57 C 346.35 293.11 347.42 293.65 348.49 294.19 C 340.85 301.66 331.88 307.56 323.60 314.25 C 321.03 312.83 318.01 313.44 315.21 313.46 C 313.90 315.51 312.44 317.50 311.60 319.80 C 311.53 322.27 313.69 324.48 313.02 326.98 C 312.45 329.38 311.99 331.84 310.97 334.10 C 309.18 337.13 306.80 339.78 305.19 342.93 C 306.58 344.38 308.56 344.78 310.44 345.24 C 310.23 345.58 309.81 346.26 309.60 346.60 C 309.96 346.85 310.69 347.35 311.05 347.59 C 309.85 347.81 308.65 348.05 307.47 348.32 C 300.00 347.53 292.44 348.57 284.99 347.33 C 277.98 346.75 271.28 343.77 264.17 344.29 C 262.11 344.44 259.74 344.15 258.15 345.76 C 258.61 346.77 259.08 347.79 259.54 348.82 C 256.85 349.39 253.34 348.94 251.82 351.80 C 250.93 351.40 250.05 351.00 249.17 350.60 C 249.43 363.09 249.09 375.58 249.18 388.07 C 249.26 391.20 249.04 394.33 248.32 397.39 C 247.50 382.24 248.79 367.02 247.54 351.89 C 247.33 351.98 246.91 352.14 246.71 352.23 C 244.60 356.03 242.08 359.60 240.19 363.52 C 239.68 362.51 239.17 361.49 238.66 360.49 C 236.51 362.02 234.50 363.73 232.49 365.45 C 231.94 363.76 231.27 361.46 229.04 361.64 C 226.49 361.34 225.30 363.74 224.31 365.63 C 224.06 364.54 223.81 363.47 223.58 362.39 C 222.43 365.45 218.98 365.48 216.29 364.96 C 213.42 366.36 210.33 367.38 207.10 366.85 C 204.40 365.47 200.94 364.79 199.69 361.65 C 200.47 356.29 202.19 351.14 203.81 346.00 C 210.50 325.49 223.59 307.81 238.23 292.26 C 247.23 282.55 256.81 273.39 266.98 264.92 C 278.89 254.69 291.91 245.89 304.34 236.33 Z" fill="#d85321" opacity="1.00" stroke="#d85321" stroke-width="0.25"/>
<path d="M 348.92 238.81 C 361.23 234.74 372.57 228.10 382.84 220.26 C 382.67 222.29 382.98 224.42 382.42 226.41 C 379.39 230.46 377.20 235.07 374.22 239.15 C 367.84 248.15 359.20 255.52 349.26 260.31 C 342.64 262.74 336.12 266.01 328.93 266.21 C 334.41 260.94 340.76 256.31 344.61 249.60 C 346.71 246.29 347.90 242.55 348.92 238.81 Z" fill="#ef8622" opacity="1.00" stroke="#ef8622" stroke-width="0.25"/>
<path d="M 374.22 239.15 C 377.20 235.07 379.39 230.46 382.42 226.41 C 381.50 239.23 378.27 252.01 372.25 263.41 C 366.03 274.84 358.12 285.40 348.49 294.19 C 347.42 293.65 346.35 293.11 345.29 292.57 C 346.33 291.21 347.43 289.89 348.62 288.65 C 351.43 286.14 352.18 282.27 354.50 279.38 C 353.23 278.84 351.97 278.29 350.71 277.75 C 350.64 276.64 350.58 275.54 350.52 274.44 C 349.62 273.59 348.73 272.75 347.84 271.91 C 347.78 270.40 347.64 268.85 348.12 267.39 C 347.72 267.13 346.91 266.61 346.51 266.35 C 346.71 265.27 346.90 264.19 347.11 263.12 C 347.71 264.01 348.31 264.90 348.91 265.79 C 349.06 263.96 349.19 262.14 349.26 260.31 C 359.20 255.52 367.84 248.15 374.22 239.15 Z" fill="#d54427" opacity="1.00" stroke="#d54427" stroke-width="0.25"/>
<path d="M 133.29 281.43 C 136.81 269.38 143.67 258.47 151.76 248.97 C 151.91 249.35 152.20 250.09 152.35 250.47 C 153.22 250.11 154.08 249.74 154.95 249.38 C 154.52 251.01 154.09 252.64 153.67 254.28 C 155.61 255.63 157.86 257.17 160.35 256.42 C 164.25 256.10 169.11 254.04 172.32 257.29 C 172.80 257.04 173.28 256.80 173.77 256.57 C 174.42 259.42 174.48 263.02 177.27 264.74 C 178.54 265.11 180.11 264.62 180.59 266.32 C 181.50 265.43 182.42 264.55 183.34 263.68 C 183.87 263.75 184.93 263.90 185.46 263.97 C 172.82 276.76 158.60 289.45 152.88 307.09 C 152.34 306.43 151.80 305.78 151.25 305.14 C 150.97 307.08 150.69 309.03 150.44 310.99 C 150.11 308.90 150.14 306.70 149.34 304.72 C 147.74 303.36 146.34 301.80 145.68 299.75 C 145.28 299.89 144.87 300.04 144.47 300.19 C 143.56 298.86 142.84 297.35 141.60 296.30 C 138.58 296.03 136.41 293.62 134.27 291.74 C 133.88 285.41 138.07 280.01 138.99 273.90 C 136.53 275.61 136.07 278.70 134.84 281.23 C 134.45 281.28 133.68 281.38 133.29 281.43 Z" fill="#f3b036" opacity="1.00" stroke="#f3b036" stroke-width="0.25"/>
<path d="M 134.84 281.23 C 136.07 278.70 136.53 275.61 138.99 273.90 C 138.07 280.01 133.88 285.41 134.27 291.74 C 136.41 293.62 138.58 296.03 141.60 296.30 C 142.84 297.35 143.56 298.86 144.47 300.19 C 144.87 300.04 145.28 299.89 145.68 299.75 C 146.34 301.80 147.74 303.36 149.34 304.72 C 150.14 306.70 150.11 308.90 150.44 310.99 C 150.69 309.03 150.97 307.08 151.25 305.14 C 151.80 305.78 152.34 306.43 152.88 307.09 C 151.74 310.60 151.08 314.23 150.57 317.88 C 150.48 318.33 150.29 319.22 150.20 319.67 C 149.24 320.95 148.28 322.23 147.32 323.51 C 147.11 323.22 146.67 322.65 146.45 322.36 C 145.99 323.45 145.59 324.56 145.24 325.69 C 144.41 325.22 143.58 324.75 142.75 324.29 C 139.52 326.43 136.30 328.70 133.57 331.45 C 132.96 334.11 132.53 336.83 131.42 339.35 C 126.48 320.40 127.28 300.09 133.16 281.44 L 133.29 281.43 C 133.68 281.38 134.45 281.28 134.84 281.23 Z" fill="#f1a840" opacity="1.00" stroke="#f1a840" stroke-width="0.25"/>
<path d="M 374.00 300.11 C 379.93 297.47 386.06 294.96 391.15 290.84 C 390.43 293.43 390.09 296.10 389.74 298.76 L 389.60 298.86 C 384.43 302.20 381.48 307.83 377.01 311.95 C 371.18 318.62 364.27 324.25 356.86 329.08 C 354.40 329.03 351.56 328.33 349.60 330.29 C 346.83 328.07 343.63 326.51 340.65 324.60 C 342.24 322.25 342.04 319.47 342.30 316.80 C 339.43 316.24 336.51 315.94 333.63 315.38 C 333.66 314.63 333.69 313.88 333.72 313.13 C 347.69 310.74 361.04 305.71 374.00 300.11 Z" fill="#e66720" opacity="1.00" stroke="#e66720" stroke-width="0.25"/>
<path d="M 377.01 311.95 C 381.48 307.83 384.43 302.20 389.60 298.86 C 387.02 315.30 380.49 330.86 372.15 345.18 C 361.85 362.31 349.95 378.73 335.14 392.26 C 318.52 406.77 300.31 419.62 280.37 429.18 C 275.64 431.35 271.01 433.76 266.06 435.39 C 261.91 436.79 257.86 438.50 253.62 439.61 C 251.48 440.06 249.36 440.57 247.22 440.99 C 247.48 415.66 247.55 390.33 247.52 365.00 C 247.43 360.74 247.84 356.38 246.71 352.23 C 246.91 352.14 247.33 351.98 247.54 351.89 C 248.79 367.02 247.50 382.24 248.32 397.39 C 247.91 403.27 248.21 409.20 249.22 415.01 C 251.90 411.68 253.27 407.27 256.95 404.81 C 259.57 402.88 260.99 399.70 263.87 398.08 C 266.66 396.73 267.40 393.52 268.99 391.12 C 271.82 390.44 272.98 387.23 276.09 386.92 C 276.42 385.46 276.70 384.00 276.97 382.54 C 277.53 382.80 278.08 383.06 278.64 383.33 C 280.52 379.24 284.37 376.64 286.54 372.75 C 287.75 370.61 289.48 368.86 291.18 367.11 C 293.96 364.41 294.56 360.14 297.80 357.81 C 300.14 355.58 303.96 352.95 302.71 349.22 C 304.37 349.41 306.04 349.27 307.47 348.32 C 308.65 348.05 309.85 347.81 311.05 347.59 C 327.53 345.24 343.32 338.73 356.86 329.08 C 364.27 324.25 371.18 318.62 377.01 311.95 Z" fill="#c6362c" opacity="1.00" stroke="#c6362c" stroke-width="0.25"/>
<path d="M 155.07 309.68 C 156.41 308.40 158.22 307.90 159.93 307.34 C 159.61 310.69 156.32 315.25 160.15 317.63 C 161.54 317.13 162.92 316.63 164.32 316.16 C 164.42 316.78 164.53 317.41 164.64 318.04 C 167.60 319.86 168.75 323.36 171.39 325.50 C 172.51 326.66 174.24 327.50 174.53 329.24 C 175.06 331.58 173.95 333.88 173.49 336.14 C 175.87 334.60 177.84 332.20 180.79 331.77 C 180.15 334.28 179.04 336.64 178.26 339.11 C 178.67 340.53 179.78 341.83 181.17 342.37 C 183.47 341.89 185.84 341.18 188.00 342.56 C 186.28 343.28 184.61 344.12 183.08 345.18 C 184.37 347.64 187.92 346.92 189.35 344.95 C 189.91 345.07 190.47 345.20 191.04 345.34 C 191.63 341.90 194.80 339.72 198.14 339.42 C 198.35 340.69 198.56 341.97 198.78 343.25 C 201.04 342.16 202.28 344.88 203.81 346.00 C 202.19 351.14 200.47 356.29 199.69 361.65 C 198.20 370.95 197.82 380.46 199.29 389.78 C 198.99 391.74 198.42 393.66 197.55 395.44 C 192.47 391.86 186.75 389.27 181.96 385.24 C 167.65 373.63 157.27 357.45 152.32 339.71 C 150.69 333.17 150.18 326.40 150.20 319.67 C 150.29 319.22 150.48 318.33 150.57 317.88 C 151.34 318.48 152.11 319.08 152.88 319.68 C 153.15 317.77 153.46 315.87 153.82 313.97 C 154.74 313.61 155.67 313.25 156.59 312.89 C 156.09 311.82 155.58 310.74 155.07 309.68 Z" fill="#ec7f21" opacity="1.00" stroke="#ec7f21" stroke-width="0.25"/>
<path d="M 315.21 313.46 C 318.01 313.44 321.03 312.83 323.60 314.25 L 324.44 314.64 C 327.53 314.15 330.67 313.86 333.72 313.13 C 333.69 313.88 333.66 314.63 333.63 315.38 C 336.51 315.94 339.43 316.24 342.30 316.80 C 342.04 319.47 342.24 322.25 340.65 324.60 C 343.63 326.51 346.83 328.07 349.60 330.29 C 351.56 328.33 354.40 329.03 356.86 329.08 C 343.32 338.73 327.53 345.24 311.05 347.59 C 310.69 347.35 309.96 346.85 309.60 346.60 C 309.81 346.26 310.23 345.58 310.44 345.24 C 308.56 344.78 306.58 344.38 305.19 342.93 C 306.80 339.78 309.18 337.13 310.97 334.10 C 311.99 331.84 312.45 329.38 313.02 326.98 C 313.69 324.48 311.53 322.27 311.60 319.80 C 312.44 317.50 313.90 315.51 315.21 313.46 Z" fill="#e05921" opacity="1.00" stroke="#e05921" stroke-width="0.25"/>
<path d="M 147.32 323.51 C 148.28 322.23 149.24 320.95 150.20 319.67 C 150.18 326.40 150.69 333.17 152.32 339.71 C 151.17 341.70 150.20 344.01 148.10 345.19 C 145.26 346.88 141.87 347.03 138.77 347.99 C 139.33 351.35 138.14 354.60 137.94 357.93 C 134.97 352.10 132.68 345.74 131.42 339.35 C 132.53 336.83 132.96 334.11 133.57 331.45 C 136.30 328.70 139.52 326.43 142.75 324.29 C 143.58 324.75 144.41 325.22 145.24 325.69 C 145.59 324.56 145.99 323.45 146.45 322.36 C 146.67 322.65 147.11 323.22 147.32 323.51 Z" fill="#f09d3d" opacity="1.00" stroke="#f09d3d" stroke-width="0.25"/>
<path d="M 152.32 339.71 C 157.27 357.45 167.65 373.63 181.96 385.24 C 180.44 387.15 180.48 389.62 179.79 391.83 C 177.70 394.65 174.72 396.60 172.07 398.84 C 173.04 401.55 174.09 404.29 174.21 407.21 C 159.23 393.26 145.95 376.90 137.94 357.93 C 138.14 354.60 139.33 351.35 138.77 347.99 C 141.87 347.03 145.26 346.88 148.10 345.19 C 150.20 344.01 151.17 341.70 152.32 339.71 Z" fill="#ec8f3d" opacity="1.00" stroke="#ec8f3d" stroke-width="0.25"/>
<path d="M 258.15 345.76 C 259.74 344.15 262.11 344.44 264.17 344.29 C 271.28 343.77 277.98 346.75 284.99 347.33 C 292.44 348.57 300.00 347.53 307.47 348.32 C 306.04 349.27 304.37 349.41 302.71 349.22 C 303.96 352.95 300.14 355.58 297.80 357.81 C 294.56 360.14 293.96 364.41 291.18 367.11 C 289.48 368.86 287.75 370.61 286.54 372.75 C 284.37 376.64 280.52 379.24 278.64 383.33 C 278.08 383.06 277.53 382.80 276.97 382.54 C 276.70 384.00 276.42 385.46 276.09 386.92 C 272.98 387.23 271.82 390.44 268.99 391.12 C 267.40 393.52 266.66 396.73 263.87 398.08 C 260.99 399.70 259.57 402.88 256.95 404.81 C 253.27 407.27 251.90 411.68 249.22 415.01 C 248.21 409.20 247.91 403.27 248.32 397.39 C 249.04 394.33 249.26 391.20 249.18 388.07 C 249.09 375.58 249.43 363.09 249.17 350.60 C 250.05 351.00 250.93 351.40 251.82 351.80 C 253.34 348.94 256.85 349.39 259.54 348.82 C 259.08 347.79 258.61 346.77 258.15 345.76 Z" fill="#ce4428" opacity="1.00" stroke="#ce4428" stroke-width="0.25"/>
<path d="M 246.71 352.23 C 247.84 356.38 247.43 360.74 247.52 365.00 C 247.55 390.33 247.48 415.66 247.22 440.99 C 246.56 439.44 245.74 437.98 244.92 436.53 C 240.74 437.87 236.35 437.38 232.05 437.71 C 230.68 432.15 228.58 426.74 227.97 421.01 C 227.51 415.85 227.20 410.66 227.58 405.49 C 229.03 390.87 233.56 376.61 240.19 363.52 C 242.08 359.60 244.60 356.03 246.71 352.23 Z" fill="#f8f6f7" opacity="1.00" stroke="#f8f6f7" stroke-width="0.25"/>
<path d="M 232.49 365.45 C 234.50 363.73 236.51 362.02 238.66 360.49 C 239.17 361.49 239.68 362.51 240.19 363.52 C 233.56 376.61 229.03 390.87 227.58 405.49 C 225.08 407.23 225.67 410.36 225.59 412.98 C 225.36 411.26 225.10 409.53 224.85 407.82 C 224.27 409.21 223.70 410.60 223.10 411.99 C 221.47 412.55 219.90 413.28 218.42 414.16 C 217.98 413.83 217.10 413.17 216.65 412.84 C 213.10 415.18 213.67 419.98 214.13 423.63 C 213.48 423.11 212.17 422.07 211.52 421.55 C 205.61 411.76 201.58 400.98 199.29 389.78 C 197.82 380.46 198.20 370.95 199.69 361.65 C 200.94 364.79 204.40 365.47 207.10 366.85 C 210.33 367.38 213.42 366.36 216.29 364.96 C 218.98 365.48 222.43 365.45 223.58 362.39 C 223.81 363.47 224.06 364.54 224.31 365.63 C 225.30 363.74 226.49 361.34 229.04 361.64 C 231.27 361.46 231.94 363.76 232.49 365.45 Z" fill="#d24a29" opacity="1.00" stroke="#d24a29" stroke-width="0.25"/>
<path d="M 179.79 391.83 C 180.48 389.62 180.44 387.15 181.96 385.24 C 186.75 389.27 192.47 391.86 197.55 395.44 C 194.69 403.40 184.09 405.35 181.75 413.62 C 179.18 411.54 176.67 409.41 174.21 407.21 C 174.09 404.29 173.04 401.55 172.07 398.84 C 174.72 396.60 177.70 394.65 179.79 391.83 Z" fill="#e77b33" opacity="1.00" stroke="#e77b33" stroke-width="0.25"/>
<path d="M 199.29 389.78 C 201.58 400.98 205.61 411.76 211.52 421.55 C 212.23 424.71 212.08 428.02 213.23 431.08 C 212.40 431.79 211.57 432.49 210.74 433.21 C 206.13 430.83 201.82 427.92 197.43 425.17 C 192.00 421.61 186.80 417.70 181.75 413.62 C 184.09 405.35 194.69 403.40 197.55 395.44 C 198.42 393.66 198.99 391.74 199.29 389.78 Z" fill="#e06c2d" opacity="1.00" stroke="#e06c2d" stroke-width="0.25"/>
<path d="M 225.59 412.98 C 225.67 410.36 225.08 407.23 227.58 405.49 C 227.20 410.66 227.51 415.85 227.97 421.01 C 227.46 421.52 226.96 422.05 226.46 422.57 C 226.14 421.96 225.50 420.73 225.18 420.12 C 224.06 421.85 224.72 423.96 224.68 425.89 C 222.39 427.36 222.65 430.30 222.06 432.65 C 219.05 429.98 216.31 427.01 214.13 423.63 C 213.67 419.98 213.10 415.18 216.65 412.84 C 217.10 413.17 217.98 413.83 218.42 414.16 C 219.90 413.28 221.47 412.55 223.10 411.99 C 223.70 410.60 224.27 409.21 224.85 407.82 C 225.10 409.53 225.36 411.26 225.59 412.98 Z" fill="#c13d2b" opacity="1.00" stroke="#c13d2b" stroke-width="0.25"/>
<path d="M 224.68 425.89 C 224.72 423.96 224.06 421.85 225.18 420.12 C 225.50 420.73 226.14 421.96 226.46 422.57 C 226.96 422.05 227.46 421.52 227.97 421.01 C 228.58 426.74 230.68 432.15 232.05 437.71 L 232.15 438.92 L 232.14 440.20 C 230.85 440.14 229.57 440.06 228.28 439.97 C 226.73 437.12 224.38 434.86 222.06 432.65 C 222.65 430.30 222.39 427.36 224.68 425.89 Z" fill="#b2382a" opacity="1.00" stroke="#b2382a" stroke-width="0.25"/>
<path d="M 213.23 431.08 C 212.08 428.02 212.23 424.71 211.52 421.55 C 212.17 422.07 213.48 423.11 214.13 423.63 C 216.31 427.01 219.05 429.98 222.06 432.65 C 224.38 434.86 226.73 437.12 228.28 439.97 C 226.22 439.64 224.22 439.03 222.22 438.45 C 220.58 437.84 218.97 437.18 217.38 436.48 C 215.16 435.40 212.95 434.29 210.74 433.21 C 211.57 432.49 212.40 431.79 213.23 431.08 Z" fill="#d75726" opacity="1.00" stroke="#d75726" stroke-width="0.25"/>
<path d="M 173.53 425.77 C 174.15 425.90 174.78 426.04 175.42 426.19 C 180.93 423.33 187.39 428.65 192.91 425.68 C 194.52 425.65 196.69 427.53 197.43 425.17 C 201.82 427.92 206.13 430.83 210.74 433.21 C 212.95 434.29 215.16 435.40 217.38 436.48 C 215.98 437.23 214.46 437.56 212.89 437.41 C 210.28 433.33 205.03 434.73 201.02 434.97 C 196.37 435.76 191.67 435.44 187.01 435.02 C 180.96 435.51 174.50 436.16 169.39 439.74 C 167.35 441.01 168.25 443.97 170.27 444.72 C 177.08 447.86 184.59 449.49 192.10 449.39 C 202.38 450.36 212.66 451.66 223.01 451.72 C 234.68 451.27 246.38 450.99 258.04 451.73 C 262.03 451.92 266.04 451.70 270.00 451.12 C 278.61 449.94 287.32 449.49 295.87 447.87 C 300.59 447.04 305.68 446.57 309.65 443.61 C 311.09 438.80 304.78 437.69 301.42 436.75 C 291.29 435.85 280.90 433.56 270.80 435.74 C 269.19 436.12 267.52 436.38 266.06 435.39 C 271.01 433.76 275.64 431.35 280.37 429.18 C 283.07 431.36 285.89 428.53 288.46 427.60 C 290.30 426.51 292.24 427.60 293.95 428.35 C 296.67 427.90 299.13 426.00 302.01 426.46 C 308.75 426.16 315.29 428.76 322.01 427.96 C 323.16 427.64 323.31 428.98 323.85 429.62 C 326.14 429.34 328.47 429.42 330.60 430.42 C 331.17 431.39 331.76 432.36 332.35 433.34 C 334.18 433.66 336.00 433.97 337.83 434.30 C 336.95 434.78 336.07 435.26 335.20 435.76 C 335.98 436.28 336.78 436.80 337.57 437.34 C 337.12 438.69 336.66 440.05 336.20 441.41 C 336.63 441.46 337.48 441.57 337.91 441.63 C 337.99 442.24 338.14 443.47 338.22 444.08 C 337.14 444.68 335.96 445.05 334.80 445.43 C 333.87 448.74 330.32 449.97 327.31 450.68 C 322.39 452.40 317.06 451.91 312.04 453.20 C 306.87 454.57 301.49 453.77 296.26 454.62 C 290.37 456.06 284.26 455.10 278.32 456.28 C 274.50 456.07 270.69 455.25 266.83 455.62 C 260.18 455.87 253.54 455.10 246.91 455.04 C 239.71 456.12 232.46 454.34 225.27 455.44 C 220.85 456.09 216.39 455.24 211.96 455.77 C 205.60 456.58 199.34 454.12 193.00 455.27 C 187.02 455.57 180.96 455.60 175.05 454.51 C 171.63 454.31 168.27 453.28 164.83 453.68 C 158.33 451.79 151.16 451.22 145.19 447.48 C 146.09 447.11 146.98 446.75 147.88 446.40 C 146.06 445.98 144.08 445.86 142.53 444.72 C 142.58 442.10 142.66 439.40 141.38 437.01 C 145.63 436.10 147.65 431.87 151.72 430.67 C 153.65 430.57 155.40 429.64 157.30 429.43 C 160.41 429.38 163.04 427.44 166.08 427.03 C 168.53 426.24 171.32 427.31 173.53 425.77 Z" fill="#f6e9df" opacity="1.00" stroke="#f6e9df" stroke-width="0.25"/>
<path d="M 169.39 439.74 C 174.50 436.16 180.96 435.51 187.01 435.02 C 191.67 435.44 196.37 435.76 201.02 434.97 C 205.03 434.73 210.28 433.33 212.89 437.41 C 209.25 439.97 204.40 437.72 200.35 439.25 C 195.98 437.96 190.16 438.11 187.19 442.04 C 189.79 445.28 194.26 445.24 197.91 446.46 C 205.04 448.77 212.60 448.06 219.94 449.00 C 226.97 449.89 233.93 447.86 240.97 448.16 C 252.96 448.51 265.09 449.85 276.99 447.65 C 281.44 446.82 286.10 446.83 290.36 445.20 C 292.16 444.57 293.84 441.64 291.45 440.64 C 284.79 438.18 277.52 438.09 270.80 435.74 C 280.90 433.56 291.29 435.85 301.42 436.75 C 304.78 437.69 311.09 438.80 309.65 443.61 C 305.68 446.57 300.59 447.04 295.87 447.87 C 287.32 449.49 278.61 449.94 270.00 451.12 C 266.04 451.70 262.03 451.92 258.04 451.73 C 246.38 450.99 234.68 451.27 223.01 451.72 C 212.66 451.66 202.38 450.36 192.10 449.39 C 184.59 449.49 177.08 447.86 170.27 444.72 C 168.25 443.97 167.35 441.01 169.39 439.74 Z" fill="#f3d6bd" opacity="1.00" stroke="#f3d6bd" stroke-width="0.25"/>
<path d="M 253.62 439.61 C 257.86 438.50 261.91 436.79 266.06 435.39 C 267.52 436.38 269.19 436.12 270.80 435.74 C 277.52 438.09 284.79 438.18 291.45 440.64 C 293.84 441.64 292.16 444.57 290.36 445.20 C 286.10 446.83 281.44 446.82 276.99 447.65 C 265.09 449.85 252.96 448.51 240.97 448.16 C 233.93 447.86 226.97 449.89 219.94 449.00 C 212.60 448.06 205.04 448.77 197.91 446.46 C 194.26 445.24 189.79 445.28 187.19 442.04 C 190.16 438.11 195.98 437.96 200.35 439.25 C 198.01 439.89 195.60 440.34 193.39 441.38 C 193.39 441.69 193.39 442.31 193.39 442.62 C 198.61 445.14 204.50 445.87 210.20 446.47 C 217.42 446.66 224.72 448.12 231.90 446.62 C 233.11 446.47 234.16 445.85 234.98 444.96 C 234.37 443.56 233.73 442.17 233.05 440.81 C 237.63 441.92 242.36 441.38 247.01 441.88 C 247.08 443.12 247.21 444.37 247.39 445.61 C 254.06 447.26 261.04 446.65 267.84 446.44 C 273.62 445.59 279.61 445.19 285.04 442.85 C 281.92 441.19 278.71 439.42 275.09 439.28 C 269.98 438.98 264.55 437.00 259.70 439.56 C 259.31 439.69 258.53 439.95 258.14 440.09 C 256.63 439.92 255.12 439.77 253.62 439.61 Z" fill="#f3c699" opacity="1.00" stroke="#f3c699" stroke-width="0.25"/>
<path d="M 217.38 436.48 C 218.97 437.18 220.58 437.84 222.22 438.45 C 218.83 439.13 215.59 440.63 212.08 440.61 C 209.57 440.62 207.08 440.99 204.75 441.93 C 206.36 444.24 209.54 443.76 211.98 444.27 C 218.35 444.48 224.85 446.09 231.13 444.24 C 232.48 443.38 231.92 441.51 232.14 440.20 L 232.15 438.92 C 232.38 439.39 232.82 440.34 233.05 440.81 C 233.73 442.17 234.37 443.56 234.98 444.96 C 234.16 445.85 233.11 446.47 231.90 446.62 C 224.72 448.12 217.42 446.66 210.20 446.47 C 204.50 445.87 198.61 445.14 193.39 442.62 C 193.39 442.31 193.39 441.69 193.39 441.38 C 195.60 440.34 198.01 439.89 200.35 439.25 C 204.40 437.72 209.25 439.97 212.89 437.41 C 214.46 437.56 215.98 437.23 217.38 436.48 Z" fill="#f9b36b" opacity="1.00" stroke="#f9b36b" stroke-width="0.25"/>
<path d="M 232.05 437.71 C 236.35 437.38 240.74 437.87 244.92 436.53 C 245.74 437.98 246.56 439.44 247.22 440.99 L 247.01 441.88 C 242.36 441.38 237.63 441.92 233.05 440.81 C 232.82 440.34 232.38 439.39 232.15 438.92 L 232.05 437.71 Z" fill="#f5dac3" opacity="1.00" stroke="#f5dac3" stroke-width="0.25"/>
<path d="M 222.22 438.45 C 224.22 439.03 226.22 439.64 228.28 439.97 C 229.57 440.06 230.85 440.14 232.14 440.20 C 231.92 441.51 232.48 443.38 231.13 444.24 C 224.85 446.09 218.35 444.48 211.98 444.27 C 209.54 443.76 206.36 444.24 204.75 441.93 C 207.08 440.99 209.57 440.62 212.08 440.61 C 215.59 440.63 218.83 439.13 222.22 438.45 Z" fill="#f69c29" opacity="1.00" stroke="#f69c29" stroke-width="0.25"/>
<path d="M 259.70 439.56 C 264.55 437.00 269.98 438.98 275.09 439.28 C 278.71 439.42 281.92 441.19 285.04 442.85 C 279.61 445.19 273.62 445.59 267.84 446.44 C 261.04 446.65 254.06 447.26 247.39 445.61 C 247.21 444.37 247.08 443.12 247.01 441.88 L 247.22 440.99 C 249.36 440.57 251.48 440.06 253.62 439.61 C 255.12 439.77 256.63 439.92 258.14 440.09 C 254.98 441.28 251.63 441.76 248.39 442.64 C 248.31 442.85 248.16 443.28 248.08 443.50 C 256.38 444.65 265.19 445.35 273.32 442.90 C 269.23 440.40 264.09 441.27 259.70 439.56 Z" fill="#f8b570" opacity="1.00" stroke="#f8b570" stroke-width="0.25"/>
<path d="M 258.14 440.09 C 258.53 439.95 259.31 439.69 259.70 439.56 C 264.09 441.27 269.23 440.40 273.32 442.90 C 265.19 445.35 256.38 444.65 248.08 443.50 C 248.16 443.28 248.31 442.85 248.39 442.64 C 251.63 441.76 254.98 441.28 258.14 440.09 Z" fill="#fea332" opacity="1.00" stroke="#fea332" stroke-width="0.25"/>
</svg>